HIERARCHY
ROOT pelvis
{
  OFFSET 0 100 0
  CHANNELS 6 Xposition Yposition Zposition Zrotation Xrotation Yrotation
  JOINT pelvis_right_femur
  {
    OFFSET -10.78128 -3.44521 -0.5502486
    CHANNELS 3 Zrotation Xrotation Yrotation
    JOINT right_femur_tibia
    {
      OFFSET -0.8047443 -44.0398 -0.1307829
      CHANNELS 3 Zrotation Xrotation Yrotation
      JOINT right_tibia_foot
      {
        OFFSET 3.006224 -47.83518 -5
        CHANNELS 3 Zrotation Xrotation Yrotation
        End Site
        {
          OFFSET 0 -5 15
        }
      }
    }
  }
  JOINT pelvis_left_femur
  {
    OFFSET 10.78128 -3.44521 -0.5502486
    CHANNELS 3 Zrotation Xrotation Yrotation
    JOINT left_femur_tibia
    {
      OFFSET 0.8047443 -44.0398 -0.1307829
      CHANNELS 3 Zrotation Xrotation Yrotation
      JOINT left_tibia_foot
      {
        OFFSET -4.370144 -48.10324 -4.275266
        CHANNELS 3 Zrotation Xrotation Yrotation
        End Site
        {
          OFFSET 0 -5 15
        }
      }
    }
  }
  JOINT pelvis_spine1
  {
    OFFSET 0 6.468898 -3.129235
    CHANNELS 3 Zrotation Xrotation Yrotation
    JOINT spine1
    {
      OFFSET 0 23.15396 4.99043
      CHANNELS 3 Zrotation Xrotation Yrotation
      JOINT spine2
      {
        OFFSET 0 20.79997 -5.064912
        CHANNELS 3 Zrotation Xrotation Yrotation
        JOINT neck
        {
          OFFSET 0 14.38658 9.616178
          CHANNELS 3 Zrotation Xrotation Yrotation
          End Site
          {
            OFFSET 0 20 0
          }
        }
      }
      JOINT right_manubrium
      {
        OFFSET -5.722621 16.35077 3.967754
        CHANNELS 3 Zrotation Xrotation Yrotation
        JOINT right_clavicle
        {
          OFFSET -13.16364 1.694482 -4.693211
          CHANNELS 3 Zrotation Xrotation Yrotation
          JOINT right_humerus
          {
            OFFSET -28.5034 -0.3100689 -2.792744
            CHANNELS 3 Zrotation Xrotation Yrotation
            JOINT right_radius
            {
              OFFSET -25.15693 0.02248979 -1.271978
              CHANNELS 3 Zrotation Xrotation Yrotation
              End Site
              {
                OFFSET -15 0 0
              }
            }
          }
        }
      }
      JOINT left_manubrium
      {
        OFFSET 5.722621 16.35077 3.967754
        CHANNELS 3 Zrotation Xrotation Yrotation
        JOINT left_clavicle
        {
          OFFSET 13.16364 1.694482 -4.693211
          CHANNELS 3 Zrotation Xrotation Yrotation
          JOINT left_humerus
          {
            OFFSET 29.39168 -1.063119 -2.237045
            CHANNELS 3 Zrotation Xrotation Yrotation
            JOINT left_radius
            {
              OFFSET 24.59957 -0.9528479 0.9047498
              CHANNELS 3 Zrotation Xrotation Yrotation
              End Site
              {
                OFFSET 15 -0 -0
              }
            }
          }
        }
      }
    }
  }
}
MOTION
Frames: 7
Frame Time: 0.0416666666667
36.22973 101.4959 247.5726 2.054418 -8.380274 -4.755351 -0.6075408 24.60905 8.553144 -0 14.71523 -0 7.675285 -16.0596 0.8875191 -0.1760661 -27.81355 -5.702612 -0 25.87181 -0 -7.855762 -5.608296 19.9955 -1.188351 -0.5075271 9.902001 -2.054107 9.801443 -1.888968 2.460353 21.68936 5.036416 1.706545 -14.71867 7.090009 1.087153 -22.21098 11.55859 79.44584 21.87186 -3.456368 -0 0 28.3133 -25.87208 13.93991 13.94785 4.773007 -13.79026 -2.597891 -93.94471 21.29956 26.58848 0 0 -11.03186 -3.009538 6.835166 16.25455
37.0965 100.8471 254.7453 2.261136 -8.140051 -5.236438 -1.731667 25.20676 8.39752 -0 20.30409 -0 8.560846 -14.22909 0.7526583 -1.671038 -26.12602 -7.101433 -0 25.03103 -0 -7.889501 -5.700951 19.40551 -1.555514 -1.215386 9.8888 -2.209244 9.340041 -1.873896 2.613938 21.70654 4.999765 1.594369 -14.72919 7.335096 0.982443 -21.87091 11.1295 79.7643 21.59156 -3.372131 -0 0 28.13106 -25.85202 13.75929 13.91045 4.505464 -12.8915 -2.630683 -94.04501 21.6239 26.98082 0 0 -9.688421 -3.340106 6.825796 16.82834
37.94658 100.7785 262.201 2.59152 -8.1473 -5.410578 -2.908607 24.72123 7.957976 -0 27.23178 -0 9.236201 -11.64109 0.08550768 -3.291063 -23.14252 -8.431822 -0 25.53266 -0 -7.895566 -5.915793 18.837 -2.083697 -1.957928 9.785588 -2.25503 9.035945 -1.892622 2.743496 21.86283 4.986219 1.480945 -14.662 7.591851 1.12376 -21.03099 10.71877 80.48654 21.55494 -4.121127 -0 0 26.8796 -25.62241 13.67847 13.60262 4.284999 -12.29742 -2.696607 -93.75616 22.03934 26.64307 0 0 -8.915326 -3.528917 6.905638 17.18439
38.7268 101.3751 269.5397 2.906775 -8.484087 -5.09534 -3.713627 22.6551 7.152176 -0 35.35557 -0 9.610224 -9.023369 -1.118535 -4.829499 -19.0878 -9.511675 -0 26.291 -0 -7.755684 -6.677219 18.25665 -2.606391 -2.326536 9.400502 -2.223459 8.896949 -1.974397 2.794151 22.16816 5.011712 1.325959 -14.5247 7.844913 1.501895 -19.89491 10.42872 81.53096 21.76891 -5.4839 -0 0 24.7391 -25.15907 13.69871 13.04761 4.095366 -12.18795 -2.81376 -92.93229 22.55153 25.41527 0 0 -8.83821 -3.506057 7.096904 17.22839
39.44603 102.4878 276.4967 3.131113 -9.100662 -4.298892 -3.798866 18.60428 6.109956 -0 43.85784 -0 9.65943 -7.037691 -2.729608 -6.101619 -14.01354 -10.2925 -0 26.56385 -0 -7.455571 -8.00223 17.63329 -2.962475 -2.139795 8.600164 -2.151083 8.884114 -2.192082 2.711059 22.59554 5.111007 1.094954 -14.30633 8.094039 2.007659 -18.6982 10.28523 82.81791 22.1984 -7.181838 -0 0 22.12145 -24.47592 13.79492 12.34777 3.919861 -12.57786 -3.004773 -91.56701 23.12106 23.27274 0 0 -9.425795 -3.24201 7.398576 16.95061
40.07581 103.9578 282.9334 3.09026 -9.809084 -3.341362 -3.380096 12.68958 4.936709 -0 50.48422 -0 9.40258 -6.264733 -4.354748 -6.794558 -8.301631 -10.737 -0 25.88431 -0 -7.171314 -9.458705 16.996 -3.050776 -1.516959 7.426611 -1.977272 8.893919 -2.594941 2.517016 23.09982 5.288811 0.8049411 -13.99855 8.356885 2.469641 -17.60472 10.24095 84.24928 22.75135 -8.992048 -0 0 19.502 -23.63472 13.92384 11.63243 3.818713 -13.32097 -3.29254 -89.81493 23.67249 20.35984 0 0 -10.57343 -2.763396 7.795178 16.39766
40.6158 105.5354 288.878 2.862489 -10.29545 -2.342224 -2.712645 5.74509 3.82556 -0 53.58072 -0 8.839065 -6.311323 -5.672763 -6.956969 -2.512707 -10.97761 -0 24.23647 -0 -7.016262 -10.7788 16.30003 -2.950621 -0.8180427 6.011376 -1.6929 8.833473 -3.242362 2.329387 23.61866 5.487855 0.5228344 -13.62129 8.649911 2.651096 -16.57883 10.12044 85.79812 23.29824 -10.8713 -0 0 17.23017 -22.71962 14.01566 10.99491 3.888328 -14.22692 -3.635801 -87.88319 24.13627 16.91914 0 0 -12.19893 -2.127937 8.269718 15.61359
